<svg width="1500" height="500" viewBox="0 0 1500 500" fill="none" xmlns="http://www.w3.org/2000/svg">
<rect width="1500" height="500" fill="#020202"/>
<rect width="1500" height="500" fill="url(#paint0_linear_2014_320)"/>
<g clip-path="url(#clip0_2014_320)">
<path d="M622.723 238.32C629.07 217.575 651.076 205.896 671.909 212.216C674.365 212.961 676.695 213.923 678.883 215.074C676.268 218.748 673.277 223.073 670.446 227.204C669.541 226.806 668.603 226.456 667.632 226.161C654.525 222.177 640.659 229.528 636.658 242.58C636.206 244.054 635.901 245.537 635.733 247.015C635.155 247.856 634.689 248.748 634.319 249.63L634.308 249.658L634.297 249.685C633.894 250.712 633.319 252.886 632.982 254.854C632.812 255.846 632.677 256.93 632.681 257.877C632.683 258.341 632.718 258.907 632.863 259.463C632.982 259.919 633.312 260.907 634.302 261.558L634.301 261.56C634.315 261.569 634.33 261.577 634.344 261.586C634.352 261.591 634.36 261.598 634.369 261.604L634.37 261.603C635.334 262.212 636.36 262.235 637.147 262.051C637.703 261.92 638.176 261.684 638.543 261.458C641.539 267.013 646.648 271.438 653.146 273.424C666.252 277.408 680.118 270.058 684.119 257.006C685.931 251.095 685.409 245.03 683.078 239.792C684.233 238.284 685.419 236.73 686.6 235.184C688.714 232.418 690.814 229.681 692.72 227.253C699.416 236.792 701.795 249.19 698.123 261.196C691.776 281.942 669.77 293.62 648.937 287.3C628.104 280.98 616.377 259.066 622.723 238.32Z" fill="white"/>
<path d="M691.767 213.59C691.629 213.452 691.422 213.315 691.284 213.109C688.455 210.705 685.213 210.842 685.075 211.117C679.763 218.124 669.416 233.443 664.518 240.656C660.586 246.426 656.999 252.746 652.653 258.173C651.411 259.685 651.066 259.685 650.169 257.761C649.479 256.25 649.134 254.532 648.582 252.884C647.479 249.586 647.065 244.228 642.236 245.396C639.546 246.083 637.89 248.212 636.855 250.686C636.234 252.266 634.786 258.517 635.889 259.204C636.717 259.753 638.166 258.173 638.856 257.418C639.821 256.387 640.442 255.219 641.408 254.189C641.477 254.464 641.615 254.807 641.684 255.082C642.029 256.937 642.236 258.792 642.788 260.578C644.03 265.112 648.307 268.203 652.584 267.997C654.308 267.859 656.102 267.172 657.688 265.799C663.69 260.44 668.45 253.502 673.555 247.319C678.935 240.862 689.628 226.161 695.147 219.772C695.285 219.498 695.009 216.681 691.767 213.59Z" fill="white"/>
<path d="M738.135 236.732C735.72 235.427 732.961 234.74 729.926 234.74C726.89 234.74 724.131 235.427 721.717 236.732C719.371 238.037 717.509 239.892 716.129 242.227C714.749 244.563 714.128 247.242 714.128 250.265C714.128 253.287 714.818 255.967 716.198 258.302C717.577 260.638 719.44 262.424 721.786 263.798C724.131 265.103 726.89 265.79 730.064 265.79C733.099 265.79 735.858 265.103 738.204 263.798C740.549 262.493 742.412 260.638 743.791 258.302C745.102 255.967 745.792 253.287 745.792 250.265C745.792 247.242 745.102 244.563 743.791 242.227C742.412 239.892 740.549 238.037 738.135 236.732ZM735.375 253.906C734.823 254.936 734.134 255.761 733.237 256.379C732.34 256.997 731.236 257.272 729.995 257.272C728.753 257.272 727.58 256.997 726.614 256.379C725.649 255.761 724.89 254.936 724.338 253.906C723.786 252.875 723.51 251.639 723.51 250.265C723.51 248.891 723.786 247.654 724.338 246.624C724.89 245.594 725.649 244.769 726.545 244.151C727.511 243.533 728.615 243.258 729.788 243.258C731.029 243.258 732.133 243.533 733.03 244.151C733.996 244.769 734.755 245.594 735.237 246.624C735.789 247.654 736.065 248.891 736.065 250.265C736.203 251.639 735.927 252.875 735.375 253.906Z" fill="white"/>
<path d="M775.455 236.594C773.455 235.358 771.04 234.74 768.281 234.74C765.797 234.74 763.797 235.358 762.072 236.594C761.106 237.281 760.348 238.174 759.658 239.274L759.313 235.495H750.552V276.919H759.796V261.531C760.417 262.493 761.175 263.248 762.072 263.935C763.728 265.172 765.797 265.79 768.281 265.79C771.04 265.79 773.455 265.172 775.455 263.935C777.456 262.699 779.042 260.913 780.077 258.577C781.181 256.241 781.664 253.494 781.664 250.265C781.664 247.036 781.112 244.288 780.077 241.953C778.973 239.617 777.456 237.9 775.455 236.594ZM771.178 253.906C770.626 254.936 769.867 255.829 768.971 256.379C768.074 256.997 767.039 257.272 765.797 257.272C764.625 257.272 763.59 256.997 762.624 256.379C761.727 255.761 760.968 254.936 760.486 253.906C760.003 252.875 759.727 251.639 759.727 250.265C759.727 248.891 760.003 247.723 760.486 246.624C760.968 245.525 761.727 244.701 762.624 244.151C763.521 243.533 764.625 243.258 765.797 243.258C766.97 243.258 768.074 243.533 768.971 244.151C769.867 244.769 770.626 245.594 771.109 246.624C771.592 247.654 771.868 248.891 771.868 250.265C772.006 251.639 771.73 252.807 771.178 253.906Z" fill="white"/>
<path d="M811.396 236.594C809.395 235.358 806.981 234.74 804.221 234.74C801.738 234.74 799.737 235.358 798.013 236.594C797.047 237.281 796.288 238.174 795.598 239.274L795.254 235.495H786.493V276.919H795.736V261.531C796.357 262.493 797.116 263.248 798.013 263.935C799.668 265.172 801.738 265.79 804.221 265.79C806.981 265.79 809.395 265.172 811.396 263.935C813.396 262.699 814.983 260.913 816.018 258.577C817.121 256.241 817.604 253.494 817.604 250.265C817.604 247.036 817.052 244.288 816.018 241.953C814.914 239.617 813.396 237.9 811.396 236.594ZM807.188 253.906C806.636 254.936 805.877 255.829 804.98 256.379C804.083 256.997 803.049 257.272 801.807 257.272C800.634 257.272 799.6 256.997 798.634 256.379C797.737 255.761 796.978 254.936 796.495 253.906C796.012 252.875 795.736 251.639 795.736 250.265C795.736 248.891 796.012 247.723 796.495 246.624C796.978 245.525 797.737 244.701 798.634 244.151C799.531 243.533 800.634 243.258 801.807 243.258C802.98 243.258 804.083 243.533 804.98 244.151C805.877 244.769 806.636 245.594 807.119 246.624C807.602 247.654 807.878 248.891 807.878 250.265C808.016 251.639 807.74 252.807 807.188 253.906Z" fill="white"/>
<path d="M827.331 221.275C825.951 221.275 824.71 221.756 823.675 222.787C822.64 223.817 822.088 225.054 822.088 226.496C822.088 227.87 822.64 229.107 823.675 230.137C824.71 231.168 825.951 231.717 827.331 231.717C828.78 231.717 829.952 231.168 830.987 230.137C832.022 229.107 832.505 227.87 832.505 226.496C832.505 225.054 832.022 223.817 830.987 222.787C829.952 221.756 828.711 221.275 827.331 221.275Z" fill="white"/>
<path d="M831.884 235.495H822.64V265.103H831.884V235.495Z" fill="white"/>
<path d="M863.341 241.266C862.237 239.205 860.65 237.625 858.512 236.457C856.373 235.289 853.752 234.74 850.648 234.74C848.371 234.74 846.371 235.083 844.646 235.77C842.921 236.457 841.473 237.419 840.369 238.587C839.196 239.754 838.299 241.06 837.61 242.571L845.75 245.25C846.371 244.357 847.06 243.67 847.888 243.189C848.716 242.708 849.682 242.434 850.855 242.434C852.303 242.434 853.338 242.777 854.097 243.395C854.856 244.014 855.269 244.975 855.545 246.143C855.614 246.555 855.683 246.967 855.752 247.448H848.578C844.922 247.448 842.094 248.204 840.093 249.715C838.092 251.227 837.058 253.562 837.058 256.654C837.058 259.539 838.024 261.737 839.955 263.317C841.887 264.897 844.646 265.653 848.164 265.653C851.613 265.653 854.166 264.554 855.821 262.424C855.89 262.287 856.028 262.149 856.097 262.012L856.235 264.966H864.927L865.065 248.479C864.996 245.731 864.444 243.327 863.341 241.266ZM855.132 256.035C854.649 256.86 853.959 257.547 853.131 258.027C852.303 258.508 851.268 258.783 850.165 258.783C848.992 258.783 848.095 258.577 847.405 258.165C846.784 257.753 846.44 257.203 846.44 256.447C846.44 255.486 846.853 254.73 847.75 254.181C848.578 253.631 850.027 253.356 852.027 253.356H855.89C855.89 254.318 855.614 255.211 855.132 256.035Z" fill="white"/>
<path d="M879 257.684H870.722V265.927H879V257.684Z" fill="white"/>
</g>
<defs>
<linearGradient id="paint0_linear_2014_320" x1="750" y1="-41" x2="750" y2="500" gradientUnits="userSpaceOnUse">
<stop stop-color="#03FFF6"/>
<stop offset="0.5" stop-color="#03A7FF"/>
<stop offset="1" stop-color="#092A5C"/>
</linearGradient>
<clipPath id="clip0_2014_320">
<rect width="258" height="79" fill="white" transform="translate(621 210.5)"/>
</clipPath>
</defs>
</svg>
