<svg width="1500" height="500" viewBox="0 0 1500 500" fill="none" xmlns="http://www.w3.org/2000/svg">
<g clip-path="url(#clip0_2014_448)">
<rect width="1500" height="500" fill="#020202"/>
<rect width="1500" height="500" fill="url(#paint0_radial_2014_448)"/>
<path d="M1591.94 -235.87C1589.35 -238.447 1585.46 -241.025 1582.87 -244.891C1529.7 -289.997 1468.75 -287.42 1466.16 -282.265C1366.31 -150.812 1171.79 136.578 1079.72 271.897C1005.81 380.15 938.377 498.715 856.682 600.527C833.34 628.88 826.856 628.878 809.998 592.793C797.031 564.441 790.547 532.224 780.173 501.294C759.425 439.434 751.644 338.912 660.872 360.82C610.298 373.708 579.176 413.659 559.725 460.054C548.054 489.695 520.822 606.971 541.57 619.858C557.131 630.168 584.363 600.526 597.331 586.349C615.485 567.018 627.156 545.111 645.311 525.78C646.607 530.935 649.201 537.379 650.498 542.534C656.981 577.33 660.872 612.126 671.246 645.633C694.587 730.689 774.986 788.684 855.385 784.818C887.804 782.24 921.519 769.353 951.345 743.578C1064.16 643.056 1153.64 512.892 1249.6 396.905C1350.75 275.763 1551.74 -0.0286865 1655.49 -119.882C1658.08 -125.037 1652.89 -177.876 1591.94 -235.87Z" fill="url(#paint1_linear_2014_448)" fill-opacity="0.94"/>
<path d="M-345.751 904.364C-342.756 906.462 -338.483 908.338 -335.268 911.705C-275.184 947.081 -215.569 934.145 -213.893 928.624C-137.928 782.066 4.71362 465.709 72.3525 316.669C126.719 197.394 172.939 69.065 236.071 -45.1902C254.234 -77.1085 260.623 -78.2131 283.389 -45.5325C301.003 -19.8074 312.887 10.8318 328.384 39.5389C359.38 96.9532 384.193 194.675 469.898 157.604C517.532 136.279 541.384 91.605 552.637 42.5722C559.08 11.3747 565.909 -108.828 543.267 -117.987C526.175 -125.492 504.399 -91.6386 494.039 -75.4583C479.448 -53.3137 471.685 -29.7367 457.094 -7.59218C454.937 -12.4504 451.282 -18.3574 449.125 -23.2156C436.801 -56.3959 427.033 -90.0185 411.095 -121.265C373.588 -201.093 284.475 -244.525 205.914 -227.001C174.41 -218.932 143.386 -200.482 118.394 -169.998C24.3763 -51.7052 -41.5863 91.8128 -116.356 222.468C-195.357 359.088 -346.366 665.122 -428.145 800.915C-429.821 806.437 -415.698 857.617 -345.751 904.364Z" fill="url(#paint2_linear_2014_448)"/>
<path d="M1987.82 1527.36C1984.83 1529.46 1980.55 1531.34 1977.34 1534.71C1917.25 1570.08 1857.64 1557.15 1855.96 1551.62C1780 1405.07 1637.36 1088.71 1569.72 939.669C1515.35 820.394 1469.13 692.065 1406 577.81C1387.84 545.892 1381.45 544.787 1358.68 577.468C1341.07 603.193 1329.18 633.832 1313.68 662.539C1282.69 719.953 1257.88 817.675 1172.17 780.604C1124.54 759.279 1100.69 714.605 1089.43 665.572C1082.99 634.375 1076.16 514.172 1098.8 505.013C1115.89 497.508 1137.67 531.361 1148.03 547.542C1162.62 569.686 1170.38 593.263 1184.98 615.408C1187.13 610.55 1190.79 604.643 1192.94 599.784C1205.27 566.604 1215.04 532.982 1230.97 501.735C1268.48 421.907 1357.59 378.475 1436.16 395.999C1467.66 404.068 1498.68 422.518 1523.67 453.002C1617.69 571.295 1683.66 714.813 1758.43 845.468C1837.43 982.088 1988.44 1288.12 2070.21 1423.91C2071.89 1429.44 2057.77 1480.62 1987.82 1527.36Z" fill="url(#paint3_linear_2014_448)"/>
<g clip-path="url(#clip1_2014_448)">
<path d="M635.55 204.764C641.257 184.806 661.045 173.571 679.778 179.651C681.987 180.368 684.082 181.293 686.05 182.4C683.699 185.935 681.009 190.095 678.463 194.07C677.649 193.687 676.805 193.35 675.933 193.067C664.147 189.233 651.678 196.305 648.08 208.862C647.674 210.28 647.4 211.707 647.249 213.129C646.729 213.938 646.309 214.795 645.977 215.644L645.967 215.671L645.957 215.697C645.594 216.685 645.077 218.777 644.775 220.669C644.622 221.624 644.5 222.667 644.504 223.578C644.506 224.024 644.537 224.569 644.667 225.103C644.774 225.542 645.071 226.493 645.962 227.119L645.961 227.121C645.973 227.13 645.986 227.137 645.999 227.146C646.007 227.151 646.014 227.158 646.022 227.163L646.022 227.162C646.889 227.749 647.812 227.77 648.519 227.593C649.02 227.468 649.445 227.24 649.775 227.023C652.469 232.367 657.064 236.624 662.906 238.534C674.692 242.367 687.16 235.296 690.758 222.74C692.387 217.054 691.918 211.218 689.822 206.179C690.86 204.729 691.927 203.234 692.989 201.747C694.89 199.085 696.778 196.453 698.492 194.117C704.513 203.294 706.653 215.22 703.351 226.771C697.644 246.729 677.856 257.964 659.122 251.884C640.388 245.804 629.843 224.722 635.55 204.764Z" fill="url(#paint4_linear_2014_448)"/>
<path d="M697.635 180.972C697.511 180.84 697.325 180.708 697.201 180.51C694.657 178.197 691.742 178.329 691.618 178.593C686.841 185.334 677.537 200.072 673.132 207.011C669.596 212.562 666.371 218.642 662.463 223.863C661.346 225.317 661.036 225.317 660.23 223.466C659.609 222.012 659.299 220.36 658.803 218.774C657.81 215.602 657.438 210.447 653.096 211.571C650.677 212.232 649.188 214.28 648.257 216.659C647.699 218.179 646.396 224.193 647.389 224.854C648.133 225.383 649.436 223.863 650.056 223.136C650.925 222.145 651.483 221.021 652.352 220.03C652.414 220.294 652.538 220.625 652.6 220.889C652.91 222.673 653.096 224.458 653.592 226.176C654.709 230.538 658.555 233.512 662.401 233.313C663.952 233.181 665.564 232.52 666.991 231.199C672.388 226.044 676.668 219.369 681.258 213.421C686.097 207.209 695.712 193.066 700.675 186.92C700.799 186.656 700.551 183.946 697.635 180.972Z" fill="white"/>
<path d="M739.33 203.236C737.159 201.98 734.678 201.319 731.949 201.319C729.219 201.319 726.738 201.98 724.567 203.236C722.458 204.491 720.783 206.276 719.542 208.523C718.301 210.77 717.743 213.347 717.743 216.255C717.743 219.163 718.363 221.74 719.604 223.987C720.845 226.234 722.52 227.952 724.629 229.274C726.738 230.53 729.219 231.19 732.073 231.19C734.802 231.19 737.283 230.53 739.392 229.274C741.501 228.018 743.176 226.234 744.417 223.987C745.596 221.74 746.216 219.163 746.216 216.255C746.216 213.347 745.596 210.77 744.417 208.523C743.176 206.276 741.501 204.491 739.33 203.236ZM736.849 219.757C736.353 220.749 735.732 221.542 734.926 222.137C734.12 222.731 733.127 222.996 732.011 222.996C730.894 222.996 729.839 222.731 728.971 222.137C728.103 221.542 727.42 220.749 726.924 219.757C726.428 218.766 726.18 217.577 726.18 216.255C726.18 214.933 726.428 213.744 726.924 212.752C727.42 211.761 728.103 210.968 728.909 210.373C729.777 209.778 730.77 209.514 731.824 209.514C732.941 209.514 733.934 209.778 734.74 210.373C735.608 210.968 736.291 211.761 736.725 212.752C737.221 213.744 737.469 214.933 737.469 216.255C737.593 217.577 737.345 218.766 736.849 219.757Z" fill="white"/>
<path d="M772.89 203.104C771.091 201.914 768.92 201.319 766.438 201.319C764.205 201.319 762.406 201.914 760.855 203.104C759.987 203.764 759.305 204.624 758.684 205.681L758.374 202.046H750.496V241.897H758.808V227.093C759.367 228.018 760.049 228.745 760.855 229.406C762.344 230.596 764.205 231.19 766.438 231.19C768.92 231.19 771.091 230.596 772.89 229.406C774.689 228.217 776.115 226.498 777.046 224.251C778.038 222.004 778.473 219.361 778.473 216.255C778.473 213.149 777.976 210.505 777.046 208.258C776.053 206.011 774.689 204.359 772.89 203.104ZM769.044 219.757C768.547 220.749 767.865 221.608 767.059 222.137C766.252 222.731 765.322 222.996 764.205 222.996C763.151 222.996 762.22 222.731 761.352 222.137C760.545 221.542 759.863 220.749 759.429 219.757C758.994 218.766 758.746 217.577 758.746 216.255C758.746 214.933 758.994 213.81 759.429 212.752C759.863 211.695 760.545 210.902 761.352 210.373C762.158 209.778 763.151 209.514 764.205 209.514C765.26 209.514 766.252 209.778 767.059 210.373C767.865 210.968 768.547 211.761 768.982 212.752C769.416 213.744 769.664 214.933 769.664 216.255C769.788 217.577 769.54 218.7 769.044 219.757Z" fill="white"/>
<path d="M805.209 203.104C803.41 201.914 801.238 201.319 798.757 201.319C796.524 201.319 794.725 201.914 793.174 203.104C792.306 203.764 791.624 204.624 791.003 205.681L790.693 202.046H782.815V241.897H791.127V227.093C791.686 228.018 792.368 228.745 793.174 229.406C794.663 230.596 796.524 231.19 798.757 231.19C801.238 231.19 803.41 230.596 805.209 229.406C807.007 228.217 808.434 226.498 809.365 224.251C810.357 222.004 810.791 219.361 810.791 216.255C810.791 213.149 810.295 210.505 809.365 208.258C808.372 206.011 807.007 204.359 805.209 203.104ZM801.425 219.757C800.928 220.749 800.246 221.608 799.44 222.137C798.633 222.731 797.703 222.996 796.586 222.996C795.532 222.996 794.601 222.731 793.733 222.137C792.926 221.542 792.244 220.749 791.81 219.757C791.375 218.766 791.127 217.577 791.127 216.255C791.127 214.933 791.375 213.81 791.81 212.752C792.244 211.695 792.926 210.902 793.733 210.373C794.539 209.778 795.532 209.514 796.586 209.514C797.641 209.514 798.633 209.778 799.44 210.373C800.246 210.968 800.928 211.761 801.363 212.752C801.797 213.744 802.045 214.933 802.045 216.255C802.169 217.577 801.921 218.7 801.425 219.757Z" fill="white"/>
<path d="M819.538 188.366C818.298 188.366 817.181 188.829 816.25 189.82C815.32 190.811 814.824 192.001 814.824 193.389C814.824 194.71 815.32 195.9 816.25 196.891C817.181 197.883 818.298 198.411 819.538 198.411C820.841 198.411 821.895 197.883 822.826 196.891C823.756 195.9 824.191 194.71 824.191 193.389C824.191 192.001 823.756 190.811 822.826 189.82C821.895 188.829 820.779 188.366 819.538 188.366Z" fill="white"/>
<path d="M823.632 202.046H815.32V230.53H823.632V202.046Z" fill="white"/>
<path d="M851.919 207.597C850.926 205.615 849.5 204.095 847.577 202.971C845.654 201.848 843.296 201.319 840.505 201.319C838.458 201.319 836.659 201.65 835.108 202.31C833.557 202.971 832.255 203.897 831.262 205.02C830.208 206.144 829.401 207.399 828.781 208.853L836.101 211.43C836.659 210.571 837.279 209.91 838.024 209.448C838.768 208.985 839.637 208.721 840.691 208.721C841.994 208.721 842.924 209.051 843.607 209.646C844.289 210.241 844.661 211.166 844.909 212.29C844.971 212.686 845.033 213.083 845.095 213.545H838.644C835.356 213.545 832.813 214.272 831.014 215.726C829.215 217.18 828.285 219.427 828.285 222.401C828.285 225.177 829.153 227.291 830.89 228.811C832.627 230.331 835.108 231.058 838.272 231.058C841.373 231.058 843.669 230.001 845.157 227.952C845.219 227.82 845.343 227.688 845.406 227.556L845.53 230.397H853.346L853.47 214.537C853.408 211.893 852.911 209.58 851.919 207.597ZM844.537 221.806C844.103 222.599 843.483 223.26 842.738 223.723C841.994 224.185 841.063 224.45 840.071 224.45C839.016 224.45 838.21 224.251 837.589 223.855C837.031 223.458 836.721 222.93 836.721 222.203C836.721 221.277 837.093 220.55 837.9 220.022C838.644 219.493 839.947 219.229 841.746 219.229H845.219C845.219 220.154 844.971 221.013 844.537 221.806Z" fill="white"/>
<path d="M866 223.392H858.556V231.323H866V223.392Z" fill="white"/>
</g>
<path d="M566.4 305.54C562.824 305.54 559.776 304.328 557.256 301.904C554.76 299.48 553.512 296.264 553.512 292.256C553.512 288.272 554.784 285.056 557.328 282.608C559.872 280.16 562.884 278.936 566.364 278.936C569.436 278.936 571.956 279.716 573.924 281.276C575.916 282.836 577.224 284.816 577.848 287.216L573.78 288.584C573.372 286.928 572.544 285.584 571.296 284.552C570.048 283.52 568.404 283.004 566.364 283.004C564.084 283.004 562.104 283.82 560.424 285.452C558.768 287.06 557.94 289.328 557.94 292.256C557.94 295.112 558.768 297.356 560.424 298.988C562.08 300.596 564.072 301.4 566.4 301.4C568.392 301.4 570.036 300.86 571.332 299.78C572.628 298.7 573.516 297.368 573.996 295.784L577.956 297.08C577.332 299.456 576.012 301.46 573.996 303.092C572.004 304.724 569.472 305.54 566.4 305.54ZM591.819 287.36V291.608C591.339 291.536 590.883 291.5 590.451 291.5C587.307 291.5 585.735 293.216 585.735 296.648V305H581.559V287.468H585.627V290.276C586.035 289.34 586.695 288.608 587.607 288.08C588.519 287.528 589.551 287.252 590.703 287.252C591.087 287.252 591.459 287.288 591.819 287.36ZM598.046 294.308H606.65C606.602 293.204 606.206 292.28 605.462 291.536C604.742 290.792 603.698 290.42 602.33 290.42C601.082 290.42 600.074 290.816 599.306 291.608C598.538 292.376 598.118 293.276 598.046 294.308ZM607.118 298.88L610.646 299.996C610.142 301.604 609.194 302.936 607.802 303.992C606.434 305.024 604.742 305.54 602.726 305.54C600.23 305.54 598.106 304.688 596.354 302.984C594.626 301.28 593.762 299 593.762 296.144C593.762 293.456 594.602 291.248 596.282 289.52C597.986 287.792 599.99 286.928 602.294 286.928C604.982 286.928 607.082 287.756 608.594 289.412C610.106 291.044 610.862 293.252 610.862 296.036C610.862 296.78 610.826 297.224 610.754 297.368H597.938C597.986 298.688 598.466 299.78 599.378 300.644C600.314 301.508 601.43 301.94 602.726 301.94C604.982 301.94 606.446 300.92 607.118 298.88ZM613.772 300.248C613.772 298.76 614.252 297.572 615.212 296.684C616.196 295.772 617.48 295.196 619.064 294.956L623.564 294.272C624.428 294.152 624.86 293.732 624.86 293.012C624.86 292.22 624.584 291.584 624.032 291.104C623.48 290.6 622.652 290.348 621.548 290.348C620.492 290.348 619.652 290.648 619.028 291.248C618.404 291.824 618.044 292.58 617.948 293.516L614.132 292.652C614.3 291.068 615.056 289.724 616.4 288.62C617.744 287.492 619.448 286.928 621.512 286.928C624.056 286.928 625.928 287.54 627.128 288.764C628.352 289.988 628.964 291.56 628.964 293.48V302.192C628.964 303.344 629.036 304.28 629.18 305H625.292C625.172 304.64 625.112 303.896 625.112 302.768C623.96 304.616 622.16 305.54 619.712 305.54C617.936 305.54 616.496 305.024 615.392 303.992C614.312 302.936 613.772 301.688 613.772 300.248ZM620.504 302.264C621.8 302.264 622.844 301.916 623.636 301.22C624.452 300.5 624.86 299.336 624.86 297.728V296.936L620.288 297.62C618.728 297.884 617.948 298.676 617.948 299.996C617.948 300.62 618.176 301.16 618.632 301.616C619.088 302.048 619.712 302.264 620.504 302.264ZM639.234 282.104V287.468H642.87V291.176H639.234V299.312C639.234 300.08 639.414 300.644 639.774 301.004C640.134 301.34 640.698 301.508 641.466 301.508C641.946 301.508 642.426 301.46 642.906 301.364V304.82C642.282 305.084 641.43 305.216 640.35 305.216C638.718 305.216 637.434 304.76 636.498 303.848C635.562 302.912 635.094 301.628 635.094 299.996V291.176H631.854V287.468H632.754C633.642 287.468 634.314 287.216 634.77 286.712C635.226 286.208 635.454 285.548 635.454 284.732V282.104H639.234ZM649.901 294.308H658.505C658.457 293.204 658.061 292.28 657.317 291.536C656.597 290.792 655.553 290.42 654.185 290.42C652.937 290.42 651.929 290.816 651.161 291.608C650.393 292.376 649.973 293.276 649.901 294.308ZM658.973 298.88L662.501 299.996C661.997 301.604 661.049 302.936 659.657 303.992C658.289 305.024 656.597 305.54 654.581 305.54C652.085 305.54 649.961 304.688 648.209 302.984C646.481 301.28 645.617 299 645.617 296.144C645.617 293.456 646.457 291.248 648.137 289.52C649.841 287.792 651.845 286.928 654.149 286.928C656.837 286.928 658.937 287.756 660.449 289.412C661.961 291.044 662.717 293.252 662.717 296.036C662.717 296.78 662.681 297.224 662.609 297.368H649.793C649.841 298.688 650.321 299.78 651.233 300.644C652.169 301.508 653.285 301.94 654.581 301.94C656.837 301.94 658.301 300.92 658.973 298.88ZM665.891 302.372C665.891 301.604 666.179 300.956 666.755 300.428C667.331 299.9 668.039 299.636 668.879 299.636C669.839 299.636 670.619 299.984 671.219 300.68C671.843 301.376 672.155 302.3 672.155 303.452C672.155 305.732 671.543 307.496 670.319 308.744C669.119 310.016 667.775 310.748 666.287 310.94V308.816C667.127 308.624 667.859 308.156 668.483 307.412C669.131 306.668 669.467 305.84 669.491 304.928C669.251 305.048 668.963 305.108 668.627 305.108C667.835 305.108 667.175 304.856 666.647 304.352C666.143 303.848 665.891 303.188 665.891 302.372ZM689.03 294.308H697.634C697.586 293.204 697.19 292.28 696.446 291.536C695.726 290.792 694.682 290.42 693.314 290.42C692.066 290.42 691.058 290.816 690.29 291.608C689.522 292.376 689.102 293.276 689.03 294.308ZM698.102 298.88L701.63 299.996C701.126 301.604 700.178 302.936 698.786 303.992C697.418 305.024 695.726 305.54 693.71 305.54C691.214 305.54 689.09 304.688 687.338 302.984C685.61 301.28 684.746 299 684.746 296.144C684.746 293.456 685.586 291.248 687.266 289.52C688.97 287.792 690.974 286.928 693.278 286.928C695.966 286.928 698.066 287.756 699.578 289.412C701.09 291.044 701.846 293.252 701.846 296.036C701.846 296.78 701.81 297.224 701.738 297.368H688.922C688.97 298.688 689.45 299.78 690.362 300.644C691.298 301.508 692.414 301.94 693.71 301.94C695.966 301.94 697.43 300.92 698.102 298.88ZM703.287 305L709.659 296.144L703.395 287.468H708.363C708.483 287.66 709.131 288.62 710.307 290.348C711.507 292.052 712.143 292.964 712.215 293.084L716.031 287.468H720.783L714.627 296.072L720.999 305H716.103L712.035 299.132C711.963 299.228 711.603 299.756 710.955 300.716C710.331 301.652 709.719 302.564 709.119 303.452C708.519 304.316 708.171 304.832 708.075 305H703.287ZM728.188 311.84H724.048V287.468H728.08V289.844C728.536 289.052 729.256 288.392 730.24 287.864C731.224 287.336 732.364 287.072 733.66 287.072C736.18 287.072 738.16 287.936 739.6 289.664C741.04 291.368 741.76 293.552 741.76 296.216C741.76 298.88 741.004 301.088 739.492 302.84C737.98 304.568 735.988 305.432 733.516 305.432C732.316 305.432 731.248 305.204 730.312 304.748C729.376 304.292 728.668 303.716 728.188 303.02V311.84ZM737.584 296.216C737.584 294.584 737.152 293.276 736.288 292.292C735.424 291.284 734.284 290.78 732.868 290.78C731.476 290.78 730.336 291.284 729.448 292.292C728.584 293.276 728.152 294.584 728.152 296.216C728.152 297.872 728.584 299.204 729.448 300.212C730.336 301.22 731.476 301.724 732.868 301.724C734.26 301.724 735.388 301.22 736.252 300.212C737.14 299.204 737.584 297.872 737.584 296.216ZM749.95 305H745.774V278.936H749.95V305ZM759.549 300.32C760.509 301.304 761.673 301.796 763.041 301.796C764.409 301.796 765.561 301.304 766.497 300.32C767.457 299.336 767.937 297.968 767.937 296.216C767.937 294.488 767.457 293.144 766.497 292.184C765.561 291.2 764.409 290.708 763.041 290.708C761.673 290.708 760.509 291.2 759.549 292.184C758.613 293.144 758.145 294.488 758.145 296.216C758.145 297.944 758.613 299.312 759.549 300.32ZM763.041 286.928C765.681 286.928 767.853 287.804 769.557 289.556C771.285 291.308 772.149 293.528 772.149 296.216C772.149 298.904 771.285 301.136 769.557 302.912C767.853 304.664 765.681 305.54 763.041 305.54C760.425 305.54 758.253 304.664 756.525 302.912C754.821 301.136 753.969 298.904 753.969 296.216C753.969 293.528 754.821 291.308 756.525 289.556C758.253 287.804 760.425 286.928 763.041 286.928ZM786.444 287.36V291.608C785.964 291.536 785.508 291.5 785.076 291.5C781.932 291.5 780.36 293.216 780.36 296.648V305H776.184V287.468H780.252V290.276C780.66 289.34 781.32 288.608 782.232 288.08C783.144 287.528 784.176 287.252 785.328 287.252C785.712 287.252 786.084 287.288 786.444 287.36ZM792.671 294.308H801.275C801.227 293.204 800.831 292.28 800.087 291.536C799.367 290.792 798.323 290.42 796.955 290.42C795.707 290.42 794.699 290.816 793.931 291.608C793.163 292.376 792.743 293.276 792.671 294.308ZM801.743 298.88L805.271 299.996C804.767 301.604 803.819 302.936 802.427 303.992C801.059 305.024 799.367 305.54 797.351 305.54C794.855 305.54 792.731 304.688 790.979 302.984C789.251 301.28 788.387 299 788.387 296.144C788.387 293.456 789.227 291.248 790.907 289.52C792.611 287.792 794.615 286.928 796.919 286.928C799.607 286.928 801.707 287.756 803.219 289.412C804.731 291.044 805.487 293.252 805.487 296.036C805.487 296.78 805.451 297.224 805.379 297.368H792.563C792.611 298.688 793.091 299.78 794.003 300.644C794.939 301.508 796.055 301.94 797.351 301.94C799.607 301.94 801.071 300.92 801.743 298.88ZM808.66 302.372C808.66 301.604 808.948 300.956 809.524 300.428C810.1 299.9 810.808 299.636 811.648 299.636C812.608 299.636 813.388 299.984 813.988 300.68C814.612 301.376 814.924 302.3 814.924 303.452C814.924 305.732 814.312 307.496 813.088 308.744C811.888 310.016 810.544 310.748 809.056 310.94V308.816C809.896 308.624 810.628 308.156 811.252 307.412C811.9 306.668 812.236 305.84 812.26 304.928C812.02 305.048 811.732 305.108 811.396 305.108C810.604 305.108 809.944 304.856 809.416 304.352C808.912 303.848 808.66 303.188 808.66 302.372ZM831.8 294.308H840.404C840.356 293.204 839.96 292.28 839.216 291.536C838.496 290.792 837.452 290.42 836.084 290.42C834.836 290.42 833.828 290.816 833.06 291.608C832.292 292.376 831.872 293.276 831.8 294.308ZM840.872 298.88L844.4 299.996C843.896 301.604 842.948 302.936 841.556 303.992C840.188 305.024 838.496 305.54 836.48 305.54C833.984 305.54 831.86 304.688 830.108 302.984C828.38 301.28 827.516 299 827.516 296.144C827.516 293.456 828.356 291.248 830.036 289.52C831.74 287.792 833.744 286.928 836.048 286.928C838.736 286.928 840.836 287.756 842.348 289.412C843.86 291.044 844.616 293.252 844.616 296.036C844.616 296.78 844.58 297.224 844.508 297.368H831.692C831.74 298.688 832.22 299.78 833.132 300.644C834.068 301.508 835.184 301.94 836.48 301.94C838.736 301.94 840.2 300.92 840.872 298.88ZM846.056 305L852.428 296.144L846.164 287.468H851.132C851.252 287.66 851.9 288.62 853.076 290.348C854.276 292.052 854.912 292.964 854.984 293.084L858.8 287.468H863.552L857.396 296.072L863.768 305H858.872L854.804 299.132C854.732 299.228 854.372 299.756 853.724 300.716C853.1 301.652 852.488 302.564 851.888 303.452C851.288 304.316 850.94 304.832 850.844 305H846.056ZM870.957 311.84H866.817V287.468H870.849V289.844C871.305 289.052 872.025 288.392 873.009 287.864C873.993 287.336 875.133 287.072 876.429 287.072C878.949 287.072 880.929 287.936 882.369 289.664C883.809 291.368 884.529 293.552 884.529 296.216C884.529 298.88 883.773 301.088 882.261 302.84C880.749 304.568 878.757 305.432 876.285 305.432C875.085 305.432 874.017 305.204 873.081 304.748C872.145 304.292 871.437 303.716 870.957 303.02V311.84ZM880.353 296.216C880.353 294.584 879.921 293.276 879.057 292.292C878.193 291.284 877.053 290.78 875.637 290.78C874.245 290.78 873.105 291.284 872.217 292.292C871.353 293.276 870.921 294.584 870.921 296.216C870.921 297.872 871.353 299.204 872.217 300.212C873.105 301.22 874.245 301.724 875.637 301.724C877.029 301.724 878.157 301.22 879.021 300.212C879.909 299.204 880.353 297.872 880.353 296.216ZM887.464 300.248C887.464 298.76 887.944 297.572 888.904 296.684C889.888 295.772 891.172 295.196 892.756 294.956L897.256 294.272C898.12 294.152 898.552 293.732 898.552 293.012C898.552 292.22 898.276 291.584 897.724 291.104C897.172 290.6 896.344 290.348 895.24 290.348C894.184 290.348 893.344 290.648 892.72 291.248C892.096 291.824 891.736 292.58 891.64 293.516L887.824 292.652C887.992 291.068 888.748 289.724 890.092 288.62C891.436 287.492 893.14 286.928 895.204 286.928C897.748 286.928 899.62 287.54 900.82 288.764C902.044 289.988 902.656 291.56 902.656 293.48V302.192C902.656 303.344 902.728 304.28 902.872 305H898.984C898.864 304.64 898.804 303.896 898.804 302.768C897.652 304.616 895.852 305.54 893.404 305.54C891.628 305.54 890.188 305.024 889.084 303.992C888.004 302.936 887.464 301.688 887.464 300.248ZM894.196 302.264C895.492 302.264 896.536 301.916 897.328 301.22C898.144 300.5 898.552 299.336 898.552 297.728V296.936L893.98 297.62C892.42 297.884 891.64 298.676 891.64 299.996C891.64 300.62 891.868 301.16 892.324 301.616C892.78 302.048 893.404 302.264 894.196 302.264ZM911.88 294.884V305H907.704V287.468H911.772V289.808C912.324 288.848 913.056 288.14 913.968 287.684C914.904 287.204 915.9 286.964 916.956 286.964C919.02 286.964 920.592 287.612 921.672 288.908C922.752 290.204 923.292 291.872 923.292 293.912V305H919.116V294.632C919.116 293.456 918.828 292.52 918.252 291.824C917.676 291.104 916.764 290.744 915.516 290.744C914.364 290.744 913.464 291.14 912.816 291.932C912.192 292.7 911.88 293.684 911.88 294.884ZM931.184 296.18C931.184 297.86 931.616 299.216 932.48 300.248C933.344 301.256 934.484 301.76 935.9 301.76C937.268 301.76 938.384 301.244 939.248 300.212C940.112 299.18 940.544 297.824 940.544 296.144C940.544 294.488 940.124 293.168 939.284 292.184C938.444 291.2 937.328 290.708 935.936 290.708C934.544 290.708 933.404 291.212 932.516 292.22C931.628 293.204 931.184 294.524 931.184 296.18ZM944.576 278.936V301.796C944.576 302.972 944.636 304.04 944.756 305H940.76C940.64 304.328 940.58 303.572 940.58 302.732C940.148 303.524 939.476 304.172 938.564 304.676C937.652 305.18 936.608 305.432 935.432 305.432C932.936 305.432 930.908 304.556 929.348 302.804C927.788 301.052 927.008 298.844 927.008 296.18C927.008 293.612 927.788 291.44 929.348 289.664C930.932 287.888 932.936 287 935.36 287C936.752 287 937.868 287.252 938.708 287.756C939.572 288.26 940.172 288.848 940.508 289.52V278.936H944.576Z" fill="white"/>
</g>
<defs>
<radialGradient id="paint0_radial_2014_448" cx="0" cy="0" r="1" gradientUnits="userSpaceOnUse" gradientTransform="translate(212.891 -353.365) rotate(51.9313) scale(871.074 1121.06)">
<stop stop-color="#787878" stop-opacity="0.25"/>
<stop offset="1" stop-color="#121212" stop-opacity="0.23"/>
</radialGradient>
<linearGradient id="paint1_linear_2014_448" x1="1235.86" y1="-39.9135" x2="709.169" y2="578.569" gradientUnits="userSpaceOnUse">
<stop stop-color="#03FFF6"/>
<stop offset="0.5" stop-color="#03A7FF"/>
<stop offset="1" stop-color="#092A5C"/>
</linearGradient>
<linearGradient id="paint2_linear_2014_448" x1="-28.3091" y1="650.542" x2="385.167" y2="-48.7155" gradientUnits="userSpaceOnUse">
<stop stop-color="#03FFF6"/>
<stop offset="0.5" stop-color="#03A7FF"/>
<stop offset="1" stop-color="#092A5C"/>
</linearGradient>
<linearGradient id="paint3_linear_2014_448" x1="1670.38" y1="1273.54" x2="1256.9" y2="574.285" gradientUnits="userSpaceOnUse">
<stop stop-color="#03FFF6"/>
<stop offset="0.5" stop-color="#03A7FF"/>
<stop offset="1" stop-color="#092A5C"/>
</linearGradient>
<linearGradient id="paint4_linear_2014_448" x1="685.256" y1="178.481" x2="643.471" y2="248.226" gradientUnits="userSpaceOnUse">
<stop stop-color="#03FFF6"/>
<stop offset="0.5" stop-color="#03A7FF"/>
<stop offset="1" stop-color="#092A5C"/>
</linearGradient>
<clipPath id="clip0_2014_448">
<rect width="1500" height="500" fill="white"/>
</clipPath>
<clipPath id="clip1_2014_448">
<rect width="232" height="76" fill="white" transform="translate(634 178)"/>
</clipPath>
</defs>
</svg>
