<svg width="1584" height="396" viewBox="0 0 1584 396" fill="none" xmlns="http://www.w3.org/2000/svg">
<g clip-path="url(#clip0_2036_8)">
<rect width="1584" height="396" fill="#020202"/>
<rect width="1584" height="396" fill="url(#paint0_radial_2036_8)"/>
<path d="M1569.94 -283.87C1567.35 -286.447 1563.46 -289.025 1560.87 -292.891C1507.7 -337.997 1446.75 -335.42 1444.16 -330.265C1344.31 -198.812 1149.79 88.5784 1057.72 223.897C983.809 332.15 916.377 450.715 834.682 552.527C811.34 580.88 804.856 580.878 787.998 544.793C775.031 516.441 768.547 484.224 758.173 453.294C737.425 391.434 708.341 331.638 638.872 312.82C558.218 290.973 465.951 360.105 446.5 406.5C434.829 436.141 498.822 558.971 519.57 571.858C535.131 582.168 562.363 552.526 575.331 538.349C593.485 519.018 605.156 497.111 623.311 477.78C624.607 482.935 627.201 489.379 628.498 494.534C634.981 529.33 638.872 564.126 649.246 597.633C672.587 682.689 752.986 740.684 833.385 736.818C865.804 734.24 899.52 721.353 929.345 695.578C1042.16 595.056 1131.64 464.892 1227.6 348.905C1328.75 227.763 1529.74 -48.0287 1633.49 -167.882C1636.08 -173.037 1630.89 -225.876 1569.94 -283.87Z" fill="url(#paint1_linear_2036_8)" fill-opacity="0.94"/>
<path d="M-345.751 904.364C-342.756 906.462 -338.483 908.338 -335.268 911.705C-275.184 947.081 -215.569 934.145 -213.893 928.624C-137.928 782.066 4.71362 465.708 72.3525 316.669C126.719 197.394 172.939 69.0649 236.071 -45.1902C254.234 -77.1086 260.623 -78.2131 283.389 -45.5325C301.003 -19.8075 312.887 10.8318 328.384 39.5388C359.38 96.9531 384.193 194.675 469.898 157.604C517.532 136.279 541.384 91.605 552.637 42.5722C559.08 11.3747 565.909 -108.828 543.267 -117.987C526.175 -125.492 504.399 -91.6387 494.039 -75.4583C479.448 -53.3138 471.685 -29.7368 457.094 -7.59224C454.937 -12.4505 451.282 -18.3574 449.125 -23.2157C436.801 -56.3959 427.033 -90.0186 411.095 -121.265C373.588 -201.094 284.475 -244.525 205.914 -227.001C174.41 -218.932 143.386 -200.482 118.394 -169.998C24.3763 -51.7052 -41.5863 91.8127 -116.356 222.468C-195.357 359.088 -346.366 665.122 -428.145 800.915C-429.821 806.437 -415.698 857.617 -345.751 904.364Z" fill="url(#paint2_linear_2036_8)"/>
<path d="M2040.82 1439.36C2037.83 1441.46 2033.55 1443.34 2030.34 1446.71C1970.25 1482.08 1910.64 1469.15 1908.96 1463.62C1833 1317.07 1690.36 1000.71 1622.72 851.669C1568.35 732.394 1522.13 604.065 1459 489.81C1440.84 457.891 1434.45 456.787 1411.68 489.467C1394.07 515.193 1382.18 545.832 1366.68 574.539C1335.69 631.953 1310.88 729.675 1225.17 692.604C1177.54 671.279 1153.69 626.605 1142.43 577.572C1135.99 546.375 1129.16 426.172 1151.8 417.013C1168.89 409.508 1190.67 443.361 1201.03 459.542C1215.62 481.686 1223.38 505.263 1237.98 527.408C1240.13 522.55 1243.79 516.643 1245.94 511.784C1258.27 478.604 1268.04 444.981 1283.97 413.735C1321.48 333.906 1410.59 290.475 1489.16 307.999C1520.66 316.068 1551.68 334.518 1576.67 365.002C1670.69 483.295 1736.66 626.813 1811.43 757.468C1890.43 894.088 2041.44 1200.12 2123.21 1335.91C2124.89 1341.44 2110.77 1392.62 2040.82 1439.36Z" fill="url(#paint3_linear_2036_8)"/>
<g clip-path="url(#clip1_2036_8)">
<path d="M677.55 152.764C683.257 132.806 703.045 121.571 721.778 127.651C723.987 128.368 726.082 129.293 728.05 130.4C725.699 133.935 723.009 138.095 720.463 142.07C719.649 141.687 718.805 141.35 717.933 141.067C706.147 137.233 693.678 144.305 690.08 156.862C689.674 158.28 689.4 159.707 689.249 161.129C688.729 161.938 688.309 162.795 687.977 163.644L687.967 163.671L687.957 163.697C687.594 164.685 687.077 166.777 686.775 168.669C686.622 169.624 686.5 170.667 686.504 171.578C686.506 172.024 686.537 172.569 686.667 173.103C686.774 173.542 687.071 174.493 687.962 175.119L687.961 175.121C687.973 175.13 687.986 175.137 687.999 175.146C688.007 175.151 688.014 175.158 688.022 175.163L688.022 175.162C688.889 175.749 689.812 175.77 690.519 175.593C691.02 175.468 691.445 175.24 691.775 175.023C694.469 180.367 699.064 184.624 704.906 186.534C716.692 190.367 729.16 183.296 732.758 170.74C734.387 165.054 733.918 159.218 731.822 154.179C732.86 152.729 733.927 151.234 734.989 149.747C736.89 147.085 738.778 144.453 740.492 142.117C746.513 151.294 748.653 163.22 745.351 174.771C739.644 194.729 719.856 205.964 701.122 199.884C682.388 193.804 671.843 172.722 677.55 152.764Z" fill="url(#paint4_linear_2036_8)"/>
<path d="M739.635 128.973C739.511 128.84 739.325 128.708 739.201 128.51C736.657 126.197 733.742 126.329 733.618 126.593C728.841 133.334 719.537 148.072 715.132 155.011C711.596 160.562 708.371 166.642 704.463 171.863C703.346 173.317 703.036 173.317 702.23 171.466C701.609 170.012 701.299 168.36 700.803 166.774C699.81 163.602 699.438 158.447 695.096 159.571C692.677 160.232 691.188 162.28 690.257 164.66C689.699 166.18 688.396 172.193 689.389 172.854C690.133 173.383 691.436 171.863 692.056 171.136C692.925 170.145 693.483 169.021 694.352 168.03C694.414 168.294 694.538 168.625 694.6 168.889C694.91 170.673 695.096 172.458 695.592 174.176C696.709 178.538 700.555 181.512 704.401 181.313C705.952 181.181 707.564 180.52 708.991 179.199C714.388 174.044 718.668 167.369 723.258 161.421C728.097 155.209 737.712 141.066 742.675 134.92C742.799 134.656 742.551 131.946 739.635 128.973Z" fill="white"/>
<path d="M781.33 151.236C779.159 149.98 776.678 149.319 773.949 149.319C771.219 149.319 768.738 149.98 766.567 151.236C764.458 152.491 762.783 154.276 761.542 156.523C760.302 158.77 759.743 161.347 759.743 164.255C759.743 167.163 760.364 169.74 761.604 171.987C762.845 174.234 764.52 175.952 766.629 177.274C768.738 178.53 771.219 179.191 774.073 179.191C776.802 179.191 779.283 178.53 781.392 177.274C783.502 176.018 785.176 174.234 786.417 171.987C787.596 169.74 788.216 167.163 788.216 164.255C788.216 161.347 787.596 158.77 786.417 156.523C785.176 154.276 783.502 152.491 781.33 151.236ZM778.849 167.757C778.353 168.749 777.733 169.542 776.926 170.137C776.12 170.731 775.127 170.996 774.011 170.996C772.894 170.996 771.84 170.731 770.971 170.137C770.103 169.542 769.42 168.749 768.924 167.757C768.428 166.766 768.18 165.577 768.18 164.255C768.18 162.933 768.428 161.744 768.924 160.752C769.42 159.761 770.103 158.968 770.909 158.373C771.778 157.778 772.77 157.514 773.825 157.514C774.941 157.514 775.934 157.778 776.74 158.373C777.609 158.968 778.291 159.761 778.725 160.752C779.221 161.744 779.469 162.933 779.469 164.255C779.594 165.577 779.345 166.766 778.849 167.757Z" fill="white"/>
<path d="M814.89 151.104C813.091 149.914 810.92 149.319 808.439 149.319C806.205 149.319 804.406 149.914 802.856 151.104C801.987 151.764 801.305 152.624 800.685 153.681L800.374 150.046H792.496V189.897H800.809V175.093C801.367 176.018 802.049 176.745 802.856 177.406C804.344 178.596 806.205 179.191 808.439 179.191C810.92 179.191 813.091 178.596 814.89 177.406C816.689 176.217 818.116 174.498 819.046 172.251C820.039 170.004 820.473 167.361 820.473 164.255C820.473 161.149 819.977 158.505 819.046 156.258C818.054 154.011 816.689 152.359 814.89 151.104ZM811.044 167.757C810.548 168.749 809.865 169.608 809.059 170.137C808.252 170.731 807.322 170.996 806.205 170.996C805.151 170.996 804.22 170.731 803.352 170.137C802.546 169.542 801.863 168.749 801.429 167.757C800.995 166.766 800.747 165.577 800.747 164.255C800.747 162.933 800.995 161.81 801.429 160.752C801.863 159.695 802.546 158.902 803.352 158.373C804.158 157.778 805.151 157.514 806.205 157.514C807.26 157.514 808.252 157.778 809.059 158.373C809.865 158.968 810.548 159.761 810.982 160.752C811.416 161.744 811.664 162.933 811.664 164.255C811.788 165.577 811.54 166.7 811.044 167.757Z" fill="white"/>
<path d="M847.209 151.104C845.41 149.914 843.238 149.319 840.757 149.319C838.524 149.319 836.725 149.914 835.174 151.104C834.306 151.764 833.624 152.624 833.003 153.681L832.693 150.046H824.815V189.897H833.127V175.093C833.686 176.018 834.368 176.745 835.174 177.406C836.663 178.596 838.524 179.191 840.757 179.191C843.238 179.191 845.41 178.596 847.209 177.406C849.007 176.217 850.434 174.498 851.365 172.251C852.357 170.004 852.791 167.361 852.791 164.255C852.791 161.149 852.295 158.505 851.365 156.258C850.372 154.011 849.007 152.359 847.209 151.104ZM843.425 167.757C842.928 168.749 842.246 169.608 841.44 170.137C840.633 170.731 839.703 170.996 838.586 170.996C837.532 170.996 836.601 170.731 835.733 170.137C834.926 169.542 834.244 168.749 833.81 167.757C833.375 166.766 833.127 165.577 833.127 164.255C833.127 162.933 833.375 161.81 833.81 160.752C834.244 159.695 834.926 158.902 835.733 158.373C836.539 157.778 837.532 157.514 838.586 157.514C839.641 157.514 840.633 157.778 841.44 158.373C842.246 158.968 842.928 159.761 843.363 160.752C843.797 161.744 844.045 162.933 844.045 164.255C844.169 165.577 843.921 166.7 843.425 167.757Z" fill="white"/>
<path d="M861.538 136.366C860.297 136.366 859.181 136.829 858.25 137.82C857.32 138.811 856.823 140.001 856.823 141.389C856.823 142.71 857.32 143.9 858.25 144.891C859.181 145.883 860.297 146.411 861.538 146.411C862.841 146.411 863.895 145.883 864.826 144.891C865.756 143.9 866.19 142.71 866.19 141.389C866.19 140.001 865.756 138.811 864.826 137.82C863.895 136.829 862.779 136.366 861.538 136.366Z" fill="white"/>
<path d="M865.632 150.046H857.32V178.53H865.632V150.046Z" fill="white"/>
<path d="M893.919 155.597C892.926 153.615 891.499 152.095 889.576 150.971C887.653 149.848 885.296 149.319 882.505 149.319C880.458 149.319 878.659 149.65 877.108 150.311C875.557 150.971 874.254 151.897 873.262 153.02C872.207 154.144 871.401 155.399 870.781 156.853L878.1 159.431C878.659 158.571 879.279 157.911 880.023 157.448C880.768 156.985 881.636 156.721 882.691 156.721C883.994 156.721 884.924 157.051 885.606 157.646C886.289 158.241 886.661 159.166 886.909 160.29C886.971 160.686 887.033 161.083 887.095 161.545H880.644C877.356 161.545 874.813 162.272 873.014 163.726C871.215 165.18 870.284 167.427 870.284 170.401C870.284 173.177 871.153 175.291 872.89 176.811C874.627 178.331 877.108 179.058 880.272 179.058C883.373 179.058 885.668 178.001 887.157 175.952C887.219 175.82 887.343 175.688 887.405 175.556L887.529 178.397H895.345L895.469 162.537C895.407 159.893 894.911 157.58 893.919 155.597ZM886.537 169.806C886.103 170.599 885.482 171.26 884.738 171.723C883.994 172.185 883.063 172.45 882.071 172.45C881.016 172.45 880.21 172.251 879.589 171.855C879.031 171.458 878.721 170.93 878.721 170.203C878.721 169.277 879.093 168.551 879.899 168.022C880.644 167.493 881.946 167.229 883.745 167.229H887.219C887.219 168.154 886.971 169.013 886.537 169.806Z" fill="white"/>
<path d="M908 171.392H900.556V179.323H908V171.392Z" fill="white"/>
</g>
<path d="M608.4 253.54C604.824 253.54 601.776 252.328 599.256 249.904C596.76 247.48 595.512 244.264 595.512 240.256C595.512 236.272 596.784 233.056 599.328 230.608C601.872 228.16 604.884 226.936 608.364 226.936C611.436 226.936 613.956 227.716 615.924 229.276C617.916 230.836 619.224 232.816 619.848 235.216L615.78 236.584C615.372 234.928 614.544 233.584 613.296 232.552C612.048 231.52 610.404 231.004 608.364 231.004C606.084 231.004 604.104 231.82 602.424 233.452C600.768 235.06 599.94 237.328 599.94 240.256C599.94 243.112 600.768 245.356 602.424 246.988C604.08 248.596 606.072 249.4 608.4 249.4C610.392 249.4 612.036 248.86 613.332 247.78C614.628 246.7 615.516 245.368 615.996 243.784L619.956 245.08C619.332 247.456 618.012 249.46 615.996 251.092C614.004 252.724 611.472 253.54 608.4 253.54ZM633.819 235.36V239.608C633.339 239.536 632.883 239.5 632.451 239.5C629.307 239.5 627.735 241.216 627.735 244.648V253H623.559V235.468H627.627V238.276C628.035 237.34 628.695 236.608 629.607 236.08C630.519 235.528 631.551 235.252 632.703 235.252C633.087 235.252 633.459 235.288 633.819 235.36ZM640.046 242.308H648.65C648.602 241.204 648.206 240.28 647.462 239.536C646.742 238.792 645.698 238.42 644.33 238.42C643.082 238.42 642.074 238.816 641.306 239.608C640.538 240.376 640.118 241.276 640.046 242.308ZM649.118 246.88L652.646 247.996C652.142 249.604 651.194 250.936 649.802 251.992C648.434 253.024 646.742 253.54 644.726 253.54C642.23 253.54 640.106 252.688 638.354 250.984C636.626 249.28 635.762 247 635.762 244.144C635.762 241.456 636.602 239.248 638.282 237.52C639.986 235.792 641.99 234.928 644.294 234.928C646.982 234.928 649.082 235.756 650.594 237.412C652.106 239.044 652.862 241.252 652.862 244.036C652.862 244.78 652.826 245.224 652.754 245.368H639.938C639.986 246.688 640.466 247.78 641.378 248.644C642.314 249.508 643.43 249.94 644.726 249.94C646.982 249.94 648.446 248.92 649.118 246.88ZM655.772 248.248C655.772 246.76 656.252 245.572 657.212 244.684C658.196 243.772 659.48 243.196 661.064 242.956L665.564 242.272C666.428 242.152 666.86 241.732 666.86 241.012C666.86 240.22 666.584 239.584 666.032 239.104C665.48 238.6 664.652 238.348 663.548 238.348C662.492 238.348 661.652 238.648 661.028 239.248C660.404 239.824 660.044 240.58 659.948 241.516L656.132 240.652C656.3 239.068 657.056 237.724 658.4 236.62C659.744 235.492 661.448 234.928 663.512 234.928C666.056 234.928 667.928 235.54 669.128 236.764C670.352 237.988 670.964 239.56 670.964 241.48V250.192C670.964 251.344 671.036 252.28 671.18 253H667.292C667.172 252.64 667.112 251.896 667.112 250.768C665.96 252.616 664.16 253.54 661.712 253.54C659.936 253.54 658.496 253.024 657.392 251.992C656.312 250.936 655.772 249.688 655.772 248.248ZM662.504 250.264C663.8 250.264 664.844 249.916 665.636 249.22C666.452 248.5 666.86 247.336 666.86 245.728V244.936L662.288 245.62C660.728 245.884 659.948 246.676 659.948 247.996C659.948 248.62 660.176 249.16 660.632 249.616C661.088 250.048 661.712 250.264 662.504 250.264ZM681.234 230.104V235.468H684.87V239.176H681.234V247.312C681.234 248.08 681.414 248.644 681.774 249.004C682.134 249.34 682.698 249.508 683.466 249.508C683.946 249.508 684.426 249.46 684.906 249.364V252.82C684.282 253.084 683.43 253.216 682.35 253.216C680.718 253.216 679.434 252.76 678.498 251.848C677.562 250.912 677.094 249.628 677.094 247.996V239.176H673.854V235.468H674.754C675.642 235.468 676.314 235.216 676.77 234.712C677.226 234.208 677.454 233.548 677.454 232.732V230.104H681.234ZM691.901 242.308H700.505C700.457 241.204 700.061 240.28 699.317 239.536C698.597 238.792 697.553 238.42 696.185 238.42C694.937 238.42 693.929 238.816 693.161 239.608C692.393 240.376 691.973 241.276 691.901 242.308ZM700.973 246.88L704.501 247.996C703.997 249.604 703.049 250.936 701.657 251.992C700.289 253.024 698.597 253.54 696.581 253.54C694.085 253.54 691.961 252.688 690.209 250.984C688.481 249.28 687.617 247 687.617 244.144C687.617 241.456 688.457 239.248 690.137 237.52C691.841 235.792 693.845 234.928 696.149 234.928C698.837 234.928 700.937 235.756 702.449 237.412C703.961 239.044 704.717 241.252 704.717 244.036C704.717 244.78 704.681 245.224 704.609 245.368H691.793C691.841 246.688 692.321 247.78 693.233 248.644C694.169 249.508 695.285 249.94 696.581 249.94C698.837 249.94 700.301 248.92 700.973 246.88ZM707.891 250.372C707.891 249.604 708.179 248.956 708.755 248.428C709.331 247.9 710.039 247.636 710.879 247.636C711.839 247.636 712.619 247.984 713.219 248.68C713.843 249.376 714.155 250.3 714.155 251.452C714.155 253.732 713.543 255.496 712.319 256.744C711.119 258.016 709.775 258.748 708.287 258.94V256.816C709.127 256.624 709.859 256.156 710.483 255.412C711.131 254.668 711.467 253.84 711.491 252.928C711.251 253.048 710.963 253.108 710.627 253.108C709.835 253.108 709.175 252.856 708.647 252.352C708.143 251.848 707.891 251.188 707.891 250.372ZM731.03 242.308H739.634C739.586 241.204 739.19 240.28 738.446 239.536C737.726 238.792 736.682 238.42 735.314 238.42C734.066 238.42 733.058 238.816 732.29 239.608C731.522 240.376 731.102 241.276 731.03 242.308ZM740.102 246.88L743.63 247.996C743.126 249.604 742.178 250.936 740.786 251.992C739.418 253.024 737.726 253.54 735.71 253.54C733.214 253.54 731.09 252.688 729.338 250.984C727.61 249.28 726.746 247 726.746 244.144C726.746 241.456 727.586 239.248 729.266 237.52C730.97 235.792 732.974 234.928 735.278 234.928C737.966 234.928 740.066 235.756 741.578 237.412C743.09 239.044 743.846 241.252 743.846 244.036C743.846 244.78 743.81 245.224 743.738 245.368H730.922C730.97 246.688 731.45 247.78 732.362 248.644C733.298 249.508 734.414 249.94 735.71 249.94C737.966 249.94 739.43 248.92 740.102 246.88ZM745.287 253L751.659 244.144L745.395 235.468H750.363C750.483 235.66 751.131 236.62 752.307 238.348C753.507 240.052 754.143 240.964 754.215 241.084L758.031 235.468H762.783L756.627 244.072L762.999 253H758.103L754.035 247.132C753.963 247.228 753.603 247.756 752.955 248.716C752.331 249.652 751.719 250.564 751.119 251.452C750.519 252.316 750.171 252.832 750.075 253H745.287ZM770.188 259.84H766.048V235.468H770.08V237.844C770.536 237.052 771.256 236.392 772.24 235.864C773.224 235.336 774.364 235.072 775.66 235.072C778.18 235.072 780.16 235.936 781.6 237.664C783.04 239.368 783.76 241.552 783.76 244.216C783.76 246.88 783.004 249.088 781.492 250.84C779.98 252.568 777.988 253.432 775.516 253.432C774.316 253.432 773.248 253.204 772.312 252.748C771.376 252.292 770.668 251.716 770.188 251.02V259.84ZM779.584 244.216C779.584 242.584 779.152 241.276 778.288 240.292C777.424 239.284 776.284 238.78 774.868 238.78C773.476 238.78 772.336 239.284 771.448 240.292C770.584 241.276 770.152 242.584 770.152 244.216C770.152 245.872 770.584 247.204 771.448 248.212C772.336 249.22 773.476 249.724 774.868 249.724C776.26 249.724 777.388 249.22 778.252 248.212C779.14 247.204 779.584 245.872 779.584 244.216ZM791.95 253H787.774V226.936H791.95V253ZM801.549 248.32C802.509 249.304 803.673 249.796 805.041 249.796C806.409 249.796 807.561 249.304 808.497 248.32C809.457 247.336 809.937 245.968 809.937 244.216C809.937 242.488 809.457 241.144 808.497 240.184C807.561 239.2 806.409 238.708 805.041 238.708C803.673 238.708 802.509 239.2 801.549 240.184C800.613 241.144 800.145 242.488 800.145 244.216C800.145 245.944 800.613 247.312 801.549 248.32ZM805.041 234.928C807.681 234.928 809.853 235.804 811.557 237.556C813.285 239.308 814.149 241.528 814.149 244.216C814.149 246.904 813.285 249.136 811.557 250.912C809.853 252.664 807.681 253.54 805.041 253.54C802.425 253.54 800.253 252.664 798.525 250.912C796.821 249.136 795.969 246.904 795.969 244.216C795.969 241.528 796.821 239.308 798.525 237.556C800.253 235.804 802.425 234.928 805.041 234.928ZM828.444 235.36V239.608C827.964 239.536 827.508 239.5 827.076 239.5C823.932 239.5 822.36 241.216 822.36 244.648V253H818.184V235.468H822.252V238.276C822.66 237.34 823.32 236.608 824.232 236.08C825.144 235.528 826.176 235.252 827.328 235.252C827.712 235.252 828.084 235.288 828.444 235.36ZM834.671 242.308H843.275C843.227 241.204 842.831 240.28 842.087 239.536C841.367 238.792 840.323 238.42 838.955 238.42C837.707 238.42 836.699 238.816 835.931 239.608C835.163 240.376 834.743 241.276 834.671 242.308ZM843.743 246.88L847.271 247.996C846.767 249.604 845.819 250.936 844.427 251.992C843.059 253.024 841.367 253.54 839.351 253.54C836.855 253.54 834.731 252.688 832.979 250.984C831.251 249.28 830.387 247 830.387 244.144C830.387 241.456 831.227 239.248 832.907 237.52C834.611 235.792 836.615 234.928 838.919 234.928C841.607 234.928 843.707 235.756 845.219 237.412C846.731 239.044 847.487 241.252 847.487 244.036C847.487 244.78 847.451 245.224 847.379 245.368H834.563C834.611 246.688 835.091 247.78 836.003 248.644C836.939 249.508 838.055 249.94 839.351 249.94C841.607 249.94 843.071 248.92 843.743 246.88ZM850.66 250.372C850.66 249.604 850.948 248.956 851.524 248.428C852.1 247.9 852.808 247.636 853.648 247.636C854.608 247.636 855.388 247.984 855.988 248.68C856.612 249.376 856.924 250.3 856.924 251.452C856.924 253.732 856.312 255.496 855.088 256.744C853.888 258.016 852.544 258.748 851.056 258.94V256.816C851.896 256.624 852.628 256.156 853.252 255.412C853.9 254.668 854.236 253.84 854.26 252.928C854.02 253.048 853.732 253.108 853.396 253.108C852.604 253.108 851.944 252.856 851.416 252.352C850.912 251.848 850.66 251.188 850.66 250.372ZM873.8 242.308H882.404C882.356 241.204 881.96 240.28 881.216 239.536C880.496 238.792 879.452 238.42 878.084 238.42C876.836 238.42 875.828 238.816 875.06 239.608C874.292 240.376 873.872 241.276 873.8 242.308ZM882.872 246.88L886.4 247.996C885.896 249.604 884.948 250.936 883.556 251.992C882.188 253.024 880.496 253.54 878.48 253.54C875.984 253.54 873.86 252.688 872.108 250.984C870.38 249.28 869.516 247 869.516 244.144C869.516 241.456 870.356 239.248 872.036 237.52C873.74 235.792 875.744 234.928 878.048 234.928C880.736 234.928 882.836 235.756 884.348 237.412C885.86 239.044 886.616 241.252 886.616 244.036C886.616 244.78 886.58 245.224 886.508 245.368H873.692C873.74 246.688 874.22 247.78 875.132 248.644C876.068 249.508 877.184 249.94 878.48 249.94C880.736 249.94 882.2 248.92 882.872 246.88ZM888.056 253L894.428 244.144L888.164 235.468H893.132C893.252 235.66 893.9 236.62 895.076 238.348C896.276 240.052 896.912 240.964 896.984 241.084L900.8 235.468H905.552L899.396 244.072L905.768 253H900.872L896.804 247.132C896.732 247.228 896.372 247.756 895.724 248.716C895.1 249.652 894.488 250.564 893.888 251.452C893.288 252.316 892.94 252.832 892.844 253H888.056ZM912.957 259.84H908.817V235.468H912.849V237.844C913.305 237.052 914.025 236.392 915.009 235.864C915.993 235.336 917.133 235.072 918.429 235.072C920.949 235.072 922.929 235.936 924.369 237.664C925.809 239.368 926.529 241.552 926.529 244.216C926.529 246.88 925.773 249.088 924.261 250.84C922.749 252.568 920.757 253.432 918.285 253.432C917.085 253.432 916.017 253.204 915.081 252.748C914.145 252.292 913.437 251.716 912.957 251.02V259.84ZM922.353 244.216C922.353 242.584 921.921 241.276 921.057 240.292C920.193 239.284 919.053 238.78 917.637 238.78C916.245 238.78 915.105 239.284 914.217 240.292C913.353 241.276 912.921 242.584 912.921 244.216C912.921 245.872 913.353 247.204 914.217 248.212C915.105 249.22 916.245 249.724 917.637 249.724C919.029 249.724 920.157 249.22 921.021 248.212C921.909 247.204 922.353 245.872 922.353 244.216ZM929.464 248.248C929.464 246.76 929.944 245.572 930.904 244.684C931.888 243.772 933.172 243.196 934.756 242.956L939.256 242.272C940.12 242.152 940.552 241.732 940.552 241.012C940.552 240.22 940.276 239.584 939.724 239.104C939.172 238.6 938.344 238.348 937.24 238.348C936.184 238.348 935.344 238.648 934.72 239.248C934.096 239.824 933.736 240.58 933.64 241.516L929.824 240.652C929.992 239.068 930.748 237.724 932.092 236.62C933.436 235.492 935.14 234.928 937.204 234.928C939.748 234.928 941.62 235.54 942.82 236.764C944.044 237.988 944.656 239.56 944.656 241.48V250.192C944.656 251.344 944.728 252.28 944.872 253H940.984C940.864 252.64 940.804 251.896 940.804 250.768C939.652 252.616 937.852 253.54 935.404 253.54C933.628 253.54 932.188 253.024 931.084 251.992C930.004 250.936 929.464 249.688 929.464 248.248ZM936.196 250.264C937.492 250.264 938.536 249.916 939.328 249.22C940.144 248.5 940.552 247.336 940.552 245.728V244.936L935.98 245.62C934.42 245.884 933.64 246.676 933.64 247.996C933.64 248.62 933.868 249.16 934.324 249.616C934.78 250.048 935.404 250.264 936.196 250.264ZM953.88 242.884V253H949.704V235.468H953.772V237.808C954.324 236.848 955.056 236.14 955.968 235.684C956.904 235.204 957.9 234.964 958.956 234.964C961.02 234.964 962.592 235.612 963.672 236.908C964.752 238.204 965.292 239.872 965.292 241.912V253H961.116V242.632C961.116 241.456 960.828 240.52 960.252 239.824C959.676 239.104 958.764 238.744 957.516 238.744C956.364 238.744 955.464 239.14 954.816 239.932C954.192 240.7 953.88 241.684 953.88 242.884ZM973.184 244.18C973.184 245.86 973.616 247.216 974.48 248.248C975.344 249.256 976.484 249.76 977.9 249.76C979.268 249.76 980.384 249.244 981.248 248.212C982.112 247.18 982.544 245.824 982.544 244.144C982.544 242.488 982.124 241.168 981.284 240.184C980.444 239.2 979.328 238.708 977.936 238.708C976.544 238.708 975.404 239.212 974.516 240.22C973.628 241.204 973.184 242.524 973.184 244.18ZM986.576 226.936V249.796C986.576 250.972 986.636 252.04 986.756 253H982.76C982.64 252.328 982.58 251.572 982.58 250.732C982.148 251.524 981.476 252.172 980.564 252.676C979.652 253.18 978.608 253.432 977.432 253.432C974.936 253.432 972.908 252.556 971.348 250.804C969.788 249.052 969.008 246.844 969.008 244.18C969.008 241.612 969.788 239.44 971.348 237.664C972.932 235.888 974.936 235 977.36 235C978.752 235 979.868 235.252 980.708 235.756C981.572 236.26 982.172 236.848 982.508 237.52V226.936H986.576Z" fill="white"/>
</g>
<defs>
<radialGradient id="paint0_radial_2036_8" cx="0" cy="0" r="1" gradientUnits="userSpaceOnUse" gradientTransform="translate(224.813 -279.865) rotate(43.7589) scale(785.299 1040.02)">
<stop stop-color="#787878" stop-opacity="0.25"/>
<stop offset="1" stop-color="#121212" stop-opacity="0.23"/>
</radialGradient>
<linearGradient id="paint1_linear_2036_8" x1="1213.86" y1="-87.9136" x2="687.169" y2="530.569" gradientUnits="userSpaceOnUse">
<stop stop-color="#03FFF6"/>
<stop offset="0.5" stop-color="#03A7FF"/>
<stop offset="1" stop-color="#092A5C"/>
</linearGradient>
<linearGradient id="paint2_linear_2036_8" x1="-28.3091" y1="650.542" x2="385.167" y2="-48.7155" gradientUnits="userSpaceOnUse">
<stop stop-color="#03FFF6"/>
<stop offset="0.5" stop-color="#03A7FF"/>
<stop offset="1" stop-color="#092A5C"/>
</linearGradient>
<linearGradient id="paint3_linear_2036_8" x1="1723.38" y1="1185.54" x2="1309.9" y2="486.284" gradientUnits="userSpaceOnUse">
<stop stop-color="#03FFF6"/>
<stop offset="0.5" stop-color="#03A7FF"/>
<stop offset="1" stop-color="#092A5C"/>
</linearGradient>
<linearGradient id="paint4_linear_2036_8" x1="727.256" y1="126.481" x2="685.471" y2="196.226" gradientUnits="userSpaceOnUse">
<stop stop-color="#03FFF6"/>
<stop offset="0.5" stop-color="#03A7FF"/>
<stop offset="1" stop-color="#092A5C"/>
</linearGradient>
<clipPath id="clip0_2036_8">
<rect width="1584" height="396" fill="white"/>
</clipPath>
<clipPath id="clip1_2036_8">
<rect width="232" height="76" fill="white" transform="translate(676 126)"/>
</clipPath>
</defs>
</svg>
