<svg width="1584" height="396" viewBox="0 0 1584 396" fill="none" xmlns="http://www.w3.org/2000/svg">
<rect width="1584" height="396" fill="#020202"/>
<rect width="1584" height="396" fill="url(#paint0_linear_2097_2)"/>
<g clip-path="url(#clip0_2097_2)">
<path d="M664.723 186.32C671.07 165.575 693.076 153.896 713.909 160.216C716.365 160.961 718.695 161.923 720.883 163.074C718.268 166.748 715.277 171.073 712.446 175.204C711.541 174.806 710.603 174.456 709.632 174.161C696.525 170.177 682.659 177.528 678.658 190.58C678.206 192.054 677.901 193.537 677.733 195.015C677.155 195.856 676.689 196.748 676.319 197.63L676.308 197.658L676.297 197.685C675.894 198.712 675.319 200.886 674.982 202.854C674.812 203.846 674.677 204.93 674.681 205.877C674.683 206.341 674.718 206.907 674.863 207.463C674.982 207.919 675.312 208.907 676.302 209.558L676.301 209.56C676.315 209.569 676.33 209.577 676.344 209.586C676.352 209.591 676.36 209.598 676.369 209.604L676.37 209.603C677.334 210.212 678.36 210.235 679.147 210.051C679.703 209.92 680.176 209.684 680.543 209.458C683.539 215.013 688.648 219.438 695.146 221.424C708.252 225.408 722.118 218.058 726.119 205.006C727.931 199.095 727.409 193.03 725.078 187.792C726.233 186.284 727.419 184.73 728.6 183.184C730.714 180.418 732.814 177.681 734.72 175.253C741.416 184.792 743.795 197.19 740.123 209.196C733.776 229.942 711.77 241.62 690.937 235.3C670.104 228.98 658.377 207.066 664.723 186.32Z" fill="white"/>
<path d="M733.766 161.59C733.628 161.452 733.422 161.315 733.284 161.109C730.455 158.705 727.213 158.842 727.075 159.117C721.763 166.124 711.415 181.443 706.518 188.656C702.586 194.426 698.998 200.746 694.652 206.173C693.411 207.685 693.066 207.685 692.169 205.761C691.479 204.25 691.134 202.532 690.582 200.884C689.479 197.586 689.065 192.228 684.236 193.396C681.545 194.083 679.89 196.212 678.855 198.685C678.234 200.265 676.786 206.517 677.889 207.204C678.717 207.753 680.166 206.173 680.856 205.418C681.821 204.387 682.442 203.219 683.408 202.189C683.477 202.464 683.615 202.807 683.684 203.082C684.029 204.937 684.236 206.792 684.788 208.578C686.029 213.111 690.306 216.203 694.583 215.997C696.308 215.859 698.102 215.172 699.688 213.799C705.69 208.44 710.45 201.502 715.555 195.319C720.935 188.862 731.628 174.161 737.147 167.772C737.285 167.498 737.009 164.681 733.766 161.59Z" fill="white"/>
<path d="M780.135 184.732C777.72 183.427 774.961 182.74 771.926 182.74C768.89 182.74 766.131 183.427 763.717 184.732C761.371 186.037 759.509 187.892 758.129 190.227C756.749 192.563 756.128 195.242 756.128 198.265C756.128 201.287 756.818 203.967 758.198 206.302C759.578 208.638 761.44 210.424 763.786 211.798C766.131 213.103 768.89 213.79 772.064 213.79C775.099 213.79 777.858 213.103 780.204 211.798C782.549 210.493 784.412 208.638 785.792 206.302C787.102 203.967 787.792 201.287 787.792 198.265C787.792 195.242 787.102 192.563 785.792 190.227C784.412 187.892 782.549 186.037 780.135 184.732ZM777.375 201.906C776.824 202.936 776.134 203.76 775.237 204.379C774.34 204.997 773.236 205.272 771.995 205.272C770.753 205.272 769.58 204.997 768.615 204.379C767.649 203.76 766.89 202.936 766.338 201.906C765.786 200.875 765.51 199.639 765.51 198.265C765.51 196.891 765.786 195.654 766.338 194.624C766.89 193.594 767.649 192.769 768.546 192.151C769.511 191.533 770.615 191.258 771.788 191.258C773.029 191.258 774.133 191.533 775.03 192.151C775.996 192.769 776.755 193.594 777.238 194.624C777.789 195.654 778.065 196.891 778.065 198.265C778.203 199.639 777.927 200.875 777.375 201.906Z" fill="white"/>
<path d="M817.455 184.594C815.454 183.358 813.04 182.74 810.281 182.74C807.797 182.74 805.797 183.358 804.072 184.594C803.106 185.281 802.347 186.174 801.658 187.274L801.313 183.495H792.552V224.919H801.796V209.531C802.416 210.493 803.175 211.248 804.072 211.935C805.728 213.172 807.797 213.79 810.281 213.79C813.04 213.79 815.454 213.172 817.455 211.935C819.455 210.699 821.042 208.913 822.077 206.577C823.181 204.241 823.664 201.494 823.664 198.265C823.664 195.036 823.112 192.288 822.077 189.953C820.973 187.617 819.455 185.9 817.455 184.594ZM813.178 201.906C812.626 202.936 811.867 203.829 810.97 204.379C810.074 204.997 809.039 205.272 807.797 205.272C806.624 205.272 805.59 204.997 804.624 204.379C803.727 203.76 802.968 202.936 802.485 201.906C802.003 200.875 801.727 199.639 801.727 198.265C801.727 196.891 802.003 195.723 802.485 194.624C802.968 193.525 803.727 192.7 804.624 192.151C805.521 191.533 806.624 191.258 807.797 191.258C808.97 191.258 810.074 191.533 810.97 192.151C811.867 192.769 812.626 193.594 813.109 194.624C813.592 195.654 813.868 196.891 813.868 198.265C814.006 199.639 813.73 200.807 813.178 201.906Z" fill="white"/>
<path d="M853.396 184.594C851.395 183.358 848.981 182.74 846.221 182.74C843.738 182.74 841.737 183.358 840.013 184.594C839.047 185.281 838.288 186.174 837.598 187.274L837.253 183.495H828.492V224.919H837.736V209.531C838.357 210.493 839.116 211.248 840.013 211.935C841.668 213.172 843.738 213.79 846.221 213.79C848.981 213.79 851.395 213.172 853.396 211.935C855.396 210.699 856.983 208.913 858.018 206.577C859.121 204.241 859.604 201.494 859.604 198.265C859.604 195.036 859.052 192.288 858.018 189.953C856.914 187.617 855.396 185.9 853.396 184.594ZM849.188 201.906C848.636 202.936 847.877 203.829 846.98 204.379C846.083 204.997 845.049 205.272 843.807 205.272C842.634 205.272 841.599 204.997 840.634 204.379C839.737 203.76 838.978 202.936 838.495 201.906C838.012 200.875 837.736 199.639 837.736 198.265C837.736 196.891 838.012 195.723 838.495 194.624C838.978 193.525 839.737 192.7 840.634 192.151C841.53 191.533 842.634 191.258 843.807 191.258C844.98 191.258 846.083 191.533 846.98 192.151C847.877 192.769 848.636 193.594 849.119 194.624C849.602 195.654 849.877 196.891 849.877 198.265C850.015 199.639 849.739 200.807 849.188 201.906Z" fill="white"/>
<path d="M869.331 169.275C867.951 169.275 866.71 169.756 865.675 170.787C864.64 171.817 864.088 173.054 864.088 174.496C864.088 175.87 864.64 177.107 865.675 178.137C866.71 179.167 867.951 179.717 869.331 179.717C870.78 179.717 871.952 179.167 872.987 178.137C874.022 177.107 874.505 175.87 874.505 174.496C874.505 173.054 874.022 171.817 872.987 170.787C871.952 169.756 870.711 169.275 869.331 169.275Z" fill="white"/>
<path d="M873.884 183.495H864.64V213.103H873.884V183.495Z" fill="white"/>
<path d="M905.341 189.266C904.237 187.205 902.65 185.625 900.512 184.457C898.373 183.289 895.752 182.74 892.648 182.74C890.371 182.74 888.371 183.083 886.646 183.77C884.921 184.457 883.473 185.419 882.369 186.587C881.196 187.754 880.3 189.06 879.61 190.571L887.75 193.25C888.371 192.357 889.061 191.67 889.888 191.189C890.716 190.708 891.682 190.434 892.855 190.434C894.303 190.434 895.338 190.777 896.097 191.395C896.856 192.014 897.27 192.975 897.546 194.143C897.615 194.555 897.684 194.967 897.752 195.448H890.578C886.922 195.448 884.094 196.204 882.093 197.715C880.093 199.227 879.058 201.562 879.058 204.654C879.058 207.539 880.024 209.737 881.955 211.317C883.887 212.897 886.646 213.653 890.164 213.653C893.613 213.653 896.166 212.554 897.821 210.424C897.89 210.287 898.028 210.149 898.097 210.012L898.235 212.966H906.927L907.065 196.479C906.996 193.731 906.444 191.327 905.341 189.266ZM897.132 204.035C896.649 204.86 895.959 205.547 895.131 206.027C894.303 206.508 893.269 206.783 892.165 206.783C890.992 206.783 890.095 206.577 889.405 206.165C888.785 205.753 888.44 205.203 888.44 204.447C888.44 203.486 888.854 202.73 889.75 202.18C890.578 201.631 892.027 201.356 894.027 201.356H897.89C897.89 202.318 897.615 203.211 897.132 204.035Z" fill="white"/>
<path d="M921 205.684H912.722V213.928H921V205.684Z" fill="white"/>
</g>
<defs>
<linearGradient id="paint0_linear_2097_2" x1="792" y1="-32.472" x2="792" y2="396" gradientUnits="userSpaceOnUse">
<stop stop-color="#03FFF6"/>
<stop offset="0.5" stop-color="#03A7FF"/>
<stop offset="1" stop-color="#092A5C"/>
</linearGradient>
<clipPath id="clip0_2097_2">
<rect width="258" height="79" fill="white" transform="translate(663 158.5)"/>
</clipPath>
</defs>
</svg>
